HIERARCHY
ROOT Hips
{
    OFFSET 0.000000 0.000000 0.000000
    CHANNELS 6 Xposition Yposition Zposition Zrotation Xrotation Yrotation
    JOINT Spine
    {
        OFFSET -0.000000 7.305679 0.000000
        CHANNELS 3 Zrotation Xrotation Yrotation
        JOINT Spine1
        {
            OFFSET -0.000000 20.356625 0.000000
            CHANNELS 3 Zrotation Xrotation Yrotation
            JOINT Neck
            {
                OFFSET -0.000000 22.138498 0.000000
                CHANNELS 3 Zrotation Xrotation Yrotation
                JOINT Head
                {
                    OFFSET -0.000000 13.809516 1.781873
                    CHANNELS 3 Zrotation Xrotation Yrotation
                    End Site
                    {
                        OFFSET -0.000000 17.818729 0.000000
                    }
                }
            }
            JOINT LeftShoulder
            {
                OFFSET 3.599131 17.989975 0.023592
                CHANNELS 3 Zrotation Xrotation Yrotation
                JOINT LeftArm
                {
                    OFFSET 12.560995 0.000000 0.000000
                    CHANNELS 3 Zrotation Xrotation Yrotation
                    JOINT LeftForeArm
                    {
                        OFFSET 22.903347 0.000000 0.000000
                        CHANNELS 3 Zrotation Xrotation Yrotation
                        JOINT LeftHand
                        {
                            OFFSET 21.865294 0.000000 0.000000
                            CHANNELS 3 Zrotation Xrotation Yrotation
                            JOINT LeftHandThumb1
                            {
                                OFFSET 1.853706 -2.106484 2.949078
                                CHANNELS 3 Zrotation Xrotation Yrotation
                                JOINT LeftHandThumb2
                                {
                                    OFFSET 2.049154 0.000000 1.336405
                                    CHANNELS 3 Zrotation Xrotation Yrotation
                                    JOINT LeftHandThumb3
                                    {
                                        OFFSET 2.672809 0.000000 0.000000
                                        CHANNELS 3 Zrotation Xrotation Yrotation
                                        End Site
                                        {
                                            OFFSET 2.381303 0.000000 0.000000
                                        }
                                    }
                                }
                            }
                            JOINT LeftHandIndex1
                            {
                                OFFSET 7.583345 0.000000 2.949078
                                CHANNELS 3 Zrotation Xrotation Yrotation
                                JOINT LeftHandIndex2
                                {
                                    OFFSET 4.454682 0.000000 0.000000
                                    CHANNELS 3 Zrotation Xrotation Yrotation
                                    JOINT LeftHandIndex3
                                    {
                                        OFFSET 2.227341 0.000000 0.000000
                                        CHANNELS 3 Zrotation Xrotation Yrotation
                                        End Site
                                        {
                                            OFFSET 1.984419 0.000000 0.000000
                                        }
                                    }
                                }
                            }
                            JOINT LeftHandMiddle1
                            {
                                OFFSET 7.583345 0.000000 0.977409
                                CHANNELS 3 Zrotation Xrotation Yrotation
                                JOINT LeftHandMiddle2
                                {
                                    OFFSET 4.900151 0.000000 0.000000
                                    CHANNELS 3 Zrotation Xrotation Yrotation
                                    JOINT LeftHandMiddle3
                                    {
                                        OFFSET 2.672809 0.000000 0.000000
                                        CHANNELS 3 Zrotation Xrotation Yrotation
                                        End Site
                                        {
                                            OFFSET 2.381303 0.000000 0.000000
                                        }
                                    }
                                }
                            }
                            JOINT LeftHandRing1
                            {
                                OFFSET 7.162047 0.000000 -0.977409
                                CHANNELS 3 Zrotation Xrotation Yrotation
                                JOINT LeftHandRing2
                                {
                                    OFFSET 4.454682 0.000000 0.000000
                                    CHANNELS 3 Zrotation Xrotation Yrotation
                                    JOINT LeftHandRing3
                                    {
                                        OFFSET 2.227341 0.000000 0.000000
                                        CHANNELS 3 Zrotation Xrotation Yrotation
                                        End Site
                                        {
                                            OFFSET 1.984419 0.000000 0.000000
                                        }
                                    }
                                }
                            }
                            JOINT LeftHandPinky1
                            {
                                OFFSET 6.740750 0.000000 -2.949078
                                CHANNELS 3 Zrotation Xrotation Yrotation
                                JOINT LeftHandPinky2
                                {
                                    OFFSET 3.563746 0.000000 0.000000
                                    CHANNELS 3 Zrotation Xrotation Yrotation
                                    JOINT LeftHandPinky3
                                    {
                                        OFFSET 1.781873 0.000000 0.000000
                                        CHANNELS 3 Zrotation Xrotation Yrotation
                                        End Site
                                        {
                                            OFFSET 1.587536 0.000000 0.000000
                                        }
                                    }
                                }
                            }
                        }
                    }
                }
            }
            JOINT RightShoulder
            {
                OFFSET -3.506995 17.989975 0.023592
                CHANNELS 3 Zrotation Xrotation Yrotation
                JOINT RightArm
                {
                    OFFSET -12.560995 0.000000 0.000000
                    CHANNELS 3 Zrotation Xrotation Yrotation
                    JOINT RightForeArm
                    {
                        OFFSET -22.903347 0.000000 0.000000
                        CHANNELS 3 Zrotation Xrotation Yrotation
                        JOINT RightHand
                        {
                            OFFSET -21.865294 0.000000 0.000000
                            CHANNELS 3 Zrotation Xrotation Yrotation
                            JOINT RightHandThumb1
                            {
                                OFFSET -1.853706 -2.106484 2.949078
                                CHANNELS 3 Zrotation Xrotation Yrotation
                                JOINT RightHandThumb2
                                {
                                    OFFSET -2.049154 0.000000 1.336405
                                    CHANNELS 3 Zrotation Xrotation Yrotation
                                    JOINT RightHandThumb3
                                    {
                                        OFFSET -2.672809 0.000000 0.000000
                                        CHANNELS 3 Zrotation Xrotation Yrotation
                                        End Site
                                        {
                                            OFFSET -2.381303 0.000000 0.000000
                                        }
                                    }
                                }
                            }
                            JOINT RightHandIndex1
                            {
                                OFFSET -7.583345 0.000000 2.949078
                                CHANNELS 3 Zrotation Xrotation Yrotation
                                JOINT RightHandIndex2
                                {
                                    OFFSET -4.454682 0.000000 0.000000
                                    CHANNELS 3 Zrotation Xrotation Yrotation
                                    JOINT RightHandIndex3
                                    {
                                        OFFSET -2.227341 0.000000 0.000000
                                        CHANNELS 3 Zrotation Xrotation Yrotation
                                        End Site
                                        {
                                            OFFSET -1.984419 0.000000 0.000000
                                        }
                                    }
                                }
                            }
                            JOINT RightHandMiddle1
                            {
                                OFFSET -7.583345 0.000000 0.977409
                                CHANNELS 3 Zrotation Xrotation Yrotation
                                JOINT RightHandMiddle2
                                {
                                    OFFSET -4.900151 0.000000 0.000000
                                    CHANNELS 3 Zrotation Xrotation Yrotation
                                    JOINT RightHandMiddle3
                                    {
                                        OFFSET -2.672809 0.000000 0.000000
                                        CHANNELS 3 Zrotation Xrotation Yrotation
                                        End Site
                                        {
                                            OFFSET -2.381303 0.000000 0.000000
                                        }
                                    }
                                }
                            }
                            JOINT RightHandRing1
                            {
                                OFFSET -7.162047 0.000000 -0.977409
                                CHANNELS 3 Zrotation Xrotation Yrotation
                                JOINT RightHandRing2
                                {
                                    OFFSET -4.454682 0.000000 0.000000
                                    CHANNELS 3 Zrotation Xrotation Yrotation
                                    JOINT RightHandRing3
                                    {
                                        OFFSET -2.227341 0.000000 0.000000
                                        CHANNELS 3 Zrotation Xrotation Yrotation
                                        End Site
                                        {
                                            OFFSET -1.984419 0.000000 0.000000
                                        }
                                    }
                                }
                            }
                            JOINT RightHandPinky1
                            {
                                OFFSET -6.740750 0.000000 -2.949078
                                CHANNELS 3 Zrotation Xrotation Yrotation
                                JOINT RightHandPinky2
                                {
                                    OFFSET -3.563746 0.000000 0.000000
                                    CHANNELS 3 Zrotation Xrotation Yrotation
                                    JOINT RightHandPinky3
                                    {
                                        OFFSET -1.781873 0.000000 0.000000
                                        CHANNELS 3 Zrotation Xrotation Yrotation
                                        End Site
                                        {
                                            OFFSET -1.587536 0.000000 0.000000
                                        }
                                    }
                                }
                            }
                        }
                    }
                }
            }
        }
    }
    JOINT LeftUpLeg
    {
        OFFSET 8.909365 0.000000 0.000000
        CHANNELS 3 Zrotation Xrotation Yrotation
        JOINT LeftLeg
        {
            OFFSET -0.000000 -38.765560 0.000000
            CHANNELS 3 Zrotation Xrotation Yrotation
            JOINT LeftFoot
            {
                OFFSET -0.000000 -35.244961 0.000000
                CHANNELS 3 Zrotation Xrotation Yrotation
                JOINT LeftToeBase
                {
                    OFFSET -0.000000 -5.791087 13.364048
                    CHANNELS 3 Zrotation Xrotation Yrotation
                    End Site
                    {
                        OFFSET -0.000000 0.000000 3.563746
                    }
                }
            }
        }
    }
    JOINT RightUpLeg
    {
        OFFSET -8.909365 0.000000 0.000000
        CHANNELS 3 Zrotation Xrotation Yrotation
        JOINT RightLeg
        {
            OFFSET -0.000000 -38.765560 0.000000
            CHANNELS 3 Zrotation Xrotation Yrotation
            JOINT RightFoot
            {
                OFFSET -0.000000 -35.244961 0.000000
                CHANNELS 3 Zrotation Xrotation Yrotation
                JOINT RightToeBase
                {
                    OFFSET -0.000000 -5.791087 13.364048
                    CHANNELS 3 Zrotation Xrotation Yrotation
                    End Site
                    {
                        OFFSET -0.000000 0.000000 3.563746
                    }
                }
            }
        }
    }
}
MOTION
Frames:    4
Frame Time:    0.008333
-4.573453    79.685051    126.057854    -7.106676    7.708319    -13.807787    -10.833001    2.013565    -11.466541    20.349670    8.904522    -5.496924    4.326195    9.035589    9.959720    -0.639216    -7.680736    11.251729    13.276126    3.878900    -15.004032    -93.923409    56.447792    18.367479    46.123112    17.813105    -68.377464    30.144793    -30.820408    -21.537842    -9.108169    11.217552    3.756025    -0.000000    0.000000    5.214298    -0.000000    0.000000    10.428596    45.000004    0.000000    -0.000000    0.000000    0.000000    0.000000    0.000000    0.000000    0.000000    23.706972    0.191256    5.782365    -13.148106    0.000000    0.000000    -6.574053    0.000000    0.000000    2.496866    -1.727992    11.241012    -26.296207    0.000000    0.000000    -13.148106    0.000000    0.000000    -19.142538    -5.622270    15.761287    -39.842739    0.000000    0.000000    -19.921368    0.000000    0.000000    -8.516872    -1.059233    -0.906499    51.248791    59.950081    -7.523001    -86.537132    2.498136    72.596756    -8.140747    -45.743042    47.295536    10.406799    2.177787    3.664345    0.000000    0.000000    0.000000    0.000000    0.000000    0.000000    -11.242620    0.000000    0.000000    0.000000    0.000000    0.000000    0.000000    0.000000    0.000000    -0.022618    -1.337757    -6.488744    15.376575    0.000000    -0.000000    7.688291    0.000000    -0.000000    10.993338    -3.902607    -12.603622    30.753151    0.000000    -0.000000    15.376577    0.000000    -0.000000    22.055267    -7.701765    -18.303385    46.595684    0.000000    -0.000000    23.297842    0.000000    -0.000000    26.357765    -19.854820    33.775078    -14.609717    45.841541    24.519789    -6.673110    -8.593157    -13.801495    -0.101240    -7.689583    -0.820425    -3.583920    -18.564722    -6.893745    7.562881    21.351704    -24.980608    26.516079    -11.554576    17.631536    -0.237074    -2.372955    0.133125    
-4.488801    79.913750    126.236473    -7.050451    7.460894    -13.040068    -10.828159    1.462099    -11.053307    20.568626    9.196947    -5.413834    3.857680    10.310950    9.230111    -0.660052    -8.719059    10.437064    13.704034    3.855632    -14.995104    -93.703209    56.300098    17.992304    46.149548    17.565678    -68.670090    29.689150    -30.386909    -21.044092    -9.094823    11.136429    3.639046    -0.000000    0.000000    5.095612    -0.000000    0.000000    10.191223    45.000004    0.000000    -0.000000    0.000000    0.000000    0.000000    0.000000    0.000000    0.000000    23.571095    0.162924    5.767312    -13.422771    0.000000    0.000000    -6.711387    0.000000    0.000000    2.227574    -1.790026    11.197150    -26.845543    0.000000    0.000000    -13.422773    0.000000    0.000000    -19.550396    -5.716305    15.668048    -40.675064    0.000000    0.000000    -20.337532    0.000000    0.000000    -8.500709    -0.904134    -0.737719    50.688881    59.891201    -7.298182    -86.161522    2.196209    72.601517    -7.908800    -45.516235    47.293762    10.463318    2.169463    3.726197    0.000000    0.000000    0.000000    0.000000    0.000000    0.000000    -11.144276    0.000000    0.000000    0.000000    0.000000    0.000000    0.000000    0.000000    0.000000    0.064411    -1.346089    -6.485619    15.419451    0.000000    -0.000000    7.709726    0.000000    -0.000000    11.068453    -3.917270    -12.596394    30.838902    0.000000    -0.000000    15.419447    0.000000    -0.000000    22.117958    -7.720801    -18.291660    46.725605    0.000000    -0.000000    23.362803    0.000000    -0.000000    25.262152    -19.816139    31.136362    -13.471539    44.941406    22.944485    -7.010948    -8.388227    -14.761353    -0.099880    -7.436514    -0.782174    -3.331498    -18.316879    -5.902181    6.803705    21.231541    -23.283768    26.412485    -11.001901    18.447538    -0.271131    -2.440925    0.180678    
-4.405252    80.127213    126.407715    -6.982427    7.184628    -12.261109    -10.806663    0.930055    -10.615472    20.753210    9.536060    -5.329958    3.393810    11.549936    8.495265    -0.652194    -9.810765    9.604530    14.127732    3.842335    -14.994110    -93.434074    56.125256    17.627092    46.225624    17.275415    -69.012421    29.263000    -29.900454    -20.500427    -9.085559    11.041356    3.493419    -0.000000    0.000000    4.946401    -0.000000    0.000000    9.892801    45.000004    0.000000    -0.000000    0.000000    0.000000    0.000000    0.000000    0.000000    0.000000    23.440063    0.135811    5.756699    -13.688013    0.000000    0.000000    -6.844005    0.000000    0.000000    1.967926    -1.850757    11.162342    -27.376020    0.000000    0.000000    -13.688008    0.000000    0.000000    -19.943439    -5.810121    15.588533    -41.478813    0.000000    0.000000    -20.739407    0.000000    0.000000    -8.484855    -0.777158    -0.533156    50.131821    59.871197    -7.100682    -85.712776    1.917379    72.641655    -7.782468    -45.295570    47.241486    10.516167    2.167397    3.772979    0.000000    0.000000    0.000000    0.000000    0.000000    0.000000    -11.032727    0.000000    0.000000    0.000000    0.000000    0.000000    0.000000    0.000000    0.000000    0.142473    -1.351712    -6.487479    15.426385    0.000000    -0.000000    7.713192    0.000000    -0.000000    11.112544    -3.925171    -12.600547    30.852770    0.000000    -0.000000    15.426382    0.000000    -0.000000    22.126717    -7.728024    -18.300049    46.746616    0.000000    -0.000000    23.373308    0.000000    -0.000000    24.153923    -19.712858    28.464390    -12.445288    44.005444    21.597906    -7.363821    -8.234743    -15.685410    -0.096478    -7.136395    -0.742604    -3.043073    -18.122921    -4.869818    5.974192    21.263727    -21.263397    26.107363    -10.427931    19.222366    -0.305871    -2.496824    0.230634    
-4.321701    80.320969    126.572060    -6.900643    6.875717    -11.452547    -10.765334    0.425986    -10.168530    20.902374    9.927217    -5.251630    2.935169    12.729745    7.761302    -0.617522    -10.934316    8.761590    14.541858    3.831636    -14.993653    -93.115631    55.931156    17.265974    46.365475    16.961906    -69.407860    28.866041    -29.370430    -19.896236    -9.080939    10.932360    3.318561    -0.000000    0.000000    4.767612    -0.000000    0.000000    9.535224    45.000004    0.000000    -0.000000    0.000000    0.000000    0.000000    0.000000    0.000000    0.000000    23.334124    0.113974    5.748442    -13.902456    0.000000    0.000000    -6.951228    0.000000    0.000000    1.757982    -1.899745    11.134767    -27.804916    0.000000    0.000000    -13.902458    0.000000    0.000000    -20.261312    -5.885788    15.524957    -42.128662    0.000000    0.000000    -21.064331    0.000000    0.000000    -8.471304    -0.675812    -0.291281    49.564583    59.885456    -6.913772    -85.182610    1.658368    72.726768    -7.756889    -45.066154    47.136879    10.559703    2.170370    3.802448    0.000000    0.000000    0.000000    0.000000    0.000000    0.000000    -10.904016    0.000000    0.000000    0.000000    0.000000    0.000000    0.000000    0.000000    0.000000    0.208209    -1.353258    -6.494013    15.385026    0.000000    -0.000000    7.692513    0.000000    -0.000000    11.115103    -3.922755    -12.616032    30.770052    0.000000    -0.000000    15.385030    0.000000    -0.000000    22.063793    -7.716988    -18.329630    46.621292    0.000000    -0.000000    23.310646    0.000000    -0.000000    23.038038    -19.554476    25.784443    -11.550794    43.059986    20.459171    -7.704839    -8.151540    -16.494244    -0.091401    -6.800939    -0.702751    -2.731856    -17.967522    -3.817359    5.079774    21.449411    -18.908508    25.718721    -9.863479    19.950497    -0.334717    -2.525583    0.273980    
